<?xml version="1.0" encoding="UTF-8" standalone="no"?>
<!DOCTYPE svg PUBLIC "-//W3C//DTD SVG 1.1//EN" "http://www.w3.org/Graphics/SVG/1.1/DTD/svg11.dtd">
<!-- Created with Vectornator (http://vectornator.io/) -->
<svg height="100%" stroke-miterlimit="10" style="fill-rule:nonzero;clip-rule:evenodd;stroke-linecap:round;stroke-linejoin:round;" version="1.1" viewBox="0 0 1365 1024" width="100%" xml:space="preserve" xmlns="http://www.w3.org/2000/svg" xmlns:vectornator="http://vectornator.io" xmlns:xlink="http://www.w3.org/1999/xlink">
<defs>
<linearGradient gradientTransform="matrix(1.36737 0 0 1.02578 -44.1252 -26.3983)" gradientUnits="userSpaceOnUse" id="LinearGradient" x1="94.4727" x2="983.322" y1="962.277" y2="89.7044">
<stop offset="0" stop-color="#ad65d2"/>
<stop offset="1" stop-color="#b34a5e"/>
</linearGradient>
<filter color-interpolation-filters="sRGB" filterUnits="userSpaceOnUse" height="416.766" id="Filter" width="421.345" x="483.219" y="304.868">
<feDropShadow dx="11.3919" dy="10.4241" flood-color="#000000" flood-opacity="0.333" in="SourceGraphic" result="Shadow" stdDeviation="17.4239"/>
</filter>
<linearGradient gradientTransform="matrix(0.41583 0 0 0.41583 467.056 310.219)" gradientUnits="userSpaceOnUse" id="LinearGradient_2" x1="521.02" x2="519.046" y1="735.993" y2="885.004">
<stop offset="0" stop-color="#e7b85f"/>
<stop offset="1" stop-color="#c2a560"/>
</linearGradient>
<filter color-interpolation-filters="sRGB" filterUnits="userSpaceOnUse" height="350.335" id="Filter_2" width="329.891" x="528.03" y="389.312">
<feDropShadow dx="11.3919" dy="10.4241" flood-color="#000000" flood-opacity="0.333" in="SourceGraphic" result="Shadow" stdDeviation="17.4239"/>
</filter>
<linearGradient gradientTransform="matrix(0.41583 0 0 0.41583 467.056 310.219)" gradientUnits="userSpaceOnUse" id="LinearGradient_3" x1="493.636" x2="554.344" y1="589.939" y2="417.337">
<stop offset="0" stop-color="#ff9e00"/>
<stop offset="1" stop-color="#00b2ff"/>
</linearGradient>
<linearGradient gradientTransform="matrix(0.41583 0 0 0.41583 467.056 310.219)" gradientUnits="userSpaceOnUse" id="LinearGradient_4" x1="424.595" x2="599.577" y1="517.327" y2="530.421">
<stop offset="0" stop-color="#f600b2" stop-opacity="0.5"/>
<stop offset="1" stop-color="#00ffa7" stop-opacity="0.5"/>
</linearGradient>
<filter color-interpolation-filters="sRGB" filterUnits="userSpaceOnUse" height="194.857" id="Filter_3" width="196.012" x="650.445" y="328.649">
<feDropShadow dx="3.63068" dy="3.63068" flood-color="#ffffff" flood-opacity="0.154083" in="SourceGraphic" result="Shadow" stdDeviation="22.9889"/>
</filter>
<filter color-interpolation-filters="sRGB" filterUnits="userSpaceOnUse" height="236.931" id="Filter_4" width="234.92" x="502.198" y="357.384">
<feDropShadow dx="3.63068" dy="3.63068" flood-color="#ffffff" flood-opacity="0.154083" in="SourceGraphic" result="Shadow" stdDeviation="22.9889"/>
</filter>
</defs>
<clipPath id="ArtboardFrame">
<rect height="1024" width="1365" x="0" y="0"/>
</clipPath>
<g clip-path="url(#ArtboardFrame)" id="レイヤー-7" vectornator:layerName="レイヤー 7">
<path d="M-1.06581e-14 0L1365 0L1365 1024L-1.06581e-14 1024L-1.06581e-14 0Z" fill="url(#LinearGradient)" fill-rule="nonzero" opacity="1" stroke="#271f34" stroke-linecap="butt" stroke-linejoin="round" stroke-width="0.666749" vectornator:layerName="長方形 1"/>
<g opacity="1" vectornator:layerName="グループ 2">
<g opacity="1" vectornator:layerName="グループ 1">
<path d="M787.613 358.017C790.681 359.982 790.983 360.466 792.033 361.689C794.098 364.096 795.993 369.549 796.59 373.81C797.364 379.343 797.782 383.862 797.828 389.396C797.864 393.577 797.544 396.403 797.544 396.403C797.544 396.403 797.031 403.436 796.759 406.737C796.329 411.93 794.981 421.476 794.691 423.666C794.469 425.347 793.726 429.672 793.726 430.92L793.73 430.92C793.592 434.023 797.339 438.815 799.086 442.272C801.203 446.461 802.614 449.244 805.129 455.62C807.563 461.791 808.55 465.452 810.203 471.999C813.005 483.096 813.762 494.27 813.586 505.881C813.502 511.516 812.894 515.618 812.449 520.706C812.103 524.666 811.687 526.591 810.767 531.071L810.776 531.132C811.841 526.879 812.393 524.652 815.91 521.339C819.873 517.605 824.734 515.237 831.326 519.135C833.842 520.623 837.499 524.944 838.937 527.46C840.893 530.883 843.304 537.325 844.529 541.909C846.732 550.15 848.788 556.55 849.206 566.111C849.447 571.624 849.224 572.63 846.588 580.794C845.342 584.653 843.476 587.89 840.011 592.913C838.581 594.986 836.174 598.265 832.922 602.01C829.399 606.068 827.559 607.552 822.848 610.419C818.774 612.899 815.07 613.302 810.446 613.439C805.083 613.598 803.877 613.113 799.086 611.9L799.086 611.906C793.397 610.773 789.106 610.386 786.411 612.131C781.964 615.008 780.63 616.346 775.395 620.825C769.405 625.95 765.431 628.268 756.114 634.32C744.342 641.968 732.686 647.257 729.86 648.305C729.232 648.537 724.998 650.314 718.251 652.295L718.251 652.295C715.686 653.244 703.564 656.197 697.891 657.258C692.237 658.316 685.285 658.895 680.047 658.812C675.893 658.746 676.34 658.778 672.21 658.409C668.21 658.051 667.937 657.925 663.478 657.324C661.048 656.996 657.676 656.432 653.227 655.327C650.864 654.74 648.439 654.308 645.111 653.255C642.614 652.466 639.316 651.813 636.874 650.859C634.559 649.955 632.667 649.201 630.426 648.223C628.286 647.288 628.296 647.361 624.751 645.529C622.792 644.517 621.167 643.752 618.193 641.811C615.773 640.231 615.84 640.315 612.983 638.335C611.228 637.119 609.753 635.946 608.641 634.947C607.943 634.32 606.42 632.18 604.47 633.535L604.478 633.535C600.858 636.749 601.944 640.017 603.819 644.235C604.008 644.659 605.262 647.117 605.094 649.814C604.922 652.587 603.32 655.605 603.009 656.262C602.827 656.648 601.51 658.669 599.749 660.218C598.245 661.541 596.33 662.401 595.48 662.906C594.531 663.469 590.598 665.062 590.598 665.062C590.598 665.062 587.581 666.165 583.437 666.832C582.968 666.907 581.678 667.071 581.54 667.092L581.538 667.076C581.657 667.111 576.891 667.577 572.005 667.111C569.089 666.834 561.844 665.646 560.882 665.365C559.848 665.064 556.651 664.333 554.642 663.724C551.316 662.716 549.869 662.165 546.247 660.239C543.344 658.695 542.695 658.253 540.401 656.709C539.513 656.112 537.953 654.892 537.207 654.308C536.559 653.801 535.867 653.199 534.954 652.295L534.953 652.293C535.012 652.362 532.604 650.098 530.876 648.155C529.724 646.86 528.479 645.417 527.278 643.751C526.256 642.334 524.932 640.381 524.042 638.892C522.025 635.523 520.925 633.243 519.175 628.439C518.359 626.197 517.879 625.055 517.294 622.743C517.091 621.938 516.678 620.146 516.545 619.328C516.495 619.025 516.095 616.367 516.082 616.346L516.084 616.346C515.867 615.09 515.714 613.022 515.72 610.782C515.728 608.155 515.873 606.438 516.195 603.782C516.935 597.696 519.74 589.884 523.662 583.528C525.271 580.921 528.524 575.803 531.091 571.707C533.268 568.233 540.642 557.279 540.642 557.279C540.642 557.279 544.354 551.207 545.55 549.431C546.265 548.368 548.163 545.241 548.163 545.241L548.16 545.241C549.002 543.444 547.726 540.985 547.345 538.836C546.758 535.529 546.054 533.085 545.575 528.136C544.868 520.829 544.692 515.492 544.692 512.983C544.692 512.422 544.692 507.323 544.692 507.323L544.692 507.323C544.692 505.465 544.716 503.866 544.774 502.726C544.961 499.057 545.003 498.604 545.147 496.81C545.505 492.369 546.587 485.617 546.978 483.512C547.277 481.902 548.806 474.801 549.178 473.101C549.407 472.058 550.925 466.387 550.925 466.387L550.925 466.387C552.341 461.475 554.557 454.807 557.279 448.577C560.4 441.437 564.075 434.835 566.107 431.505C567.105 429.868 567.382 429.306 569.838 426.323C570.117 425.984 570.854 425.149 570.84 423.252C570.84 423.252 580.081 452.456 570.831 423.252C567.491 412.709 566.893 402.255 567.902 389.433C568.588 380.718 570.487 371.202 571.861 363.562C572.946 357.532 574.509 350.361 576.226 346.622C577.596 343.638 579.492 341.494 580.748 340.621C581.543 340.068 580.373 340.905 580.373 340.905C581.94 339.575 583.954 338.796 585.464 338.63C590.05 338.124 596.186 338.36 600.79 338.69C604.47 338.954 608.71 339.89 609.401 340.018C621.302 342.225 634.105 349.088 641.016 353.572C643.104 354.928 645.268 356.455 647.212 358.017C650.468 360.635 653.64 363.623 656.589 366.556C658.928 368.883 661.227 371.171 663.583 373.653C665.274 375.434 667.722 378.284 669.473 380.708C670.833 382.59 671.662 384.242 672.105 384.776L672.105 384.776C673.58 386.424 676.104 385.713 677.297 385.588C680.176 385.285 682.974 385.299 684.815 385.299C686.366 385.299 686.566 385.312 688.209 385.312L688.209 385.312C689.489 385.312 690.799 385.312 691.037 383.799C691.15 383.077 691.481 381.795 691.836 380.938C693.219 377.591 694.644 376.048 696.651 373.659C700.965 368.527 707.723 364.957 712.466 362.342C716.972 359.857 723.133 357.535 725.102 357.013C730.734 355.521 736.52 354.071 742.296 353.39C746.747 352.865 751.51 352.201 753.884 352.054C763.085 351.482 770.629 350.436 779.057 353.562C782.647 354.893 785.472 356.489 787.753 358.028C788.338 358.423 788.887 358.814 789.404 359.196" fill="#271f34" fill-rule="nonzero" filter="url(#Filter)" stroke="#271f34" stroke-linecap="round" stroke-linejoin="round" stroke-width="0.666749" vectornator:layerName="曲線 1" vectornator:shadowAngle="0.741067" vectornator:shadowColor="#000000" vectornator:shadowOffset="15.4414" vectornator:shadowOpacity="0.333" vectornator:shadowRadius="34.8477"/>
<path d="M575.622 534.798C575.638 540.362 575.57 543.87 575.57 550.392C575.57 556.915 575.989 562.92 575.001 566.083C574.012 569.245 571.126 573.317 568.201 575.649C565.276 577.982 561.724 580.651 560.585 581.018C559.445 581.386 561.018 582.365 562.766 584.256C564.514 586.147 571.686 594.924 574.968 598.955C578.25 602.987 584.466 610.869 587.38 614.376C590.294 617.882 596.369 625.438 600.353 629.597C604.338 633.757 606.865 636.343 612.32 639.843C617.776 643.344 618.583 644.722 628.033 648.733C637.483 652.745 639.908 653.364 645.749 654.908C651.59 656.452 652.802 656.811 654.256 657.362C655.709 657.913 656.383 658.6 656.668 660.729C656.953 662.858 658.073 666.419 659.681 669.973C661.289 673.527 663.352 677.869 665.724 680.577C668.096 683.286 670.597 684.75 672.903 685.316C675.209 685.882 677.807 685.918 681.212 684.163C684.616 682.407 689.833 676.728 691.926 674.169C694.019 671.609 699.718 664.421 701.394 662.11C703.07 659.799 706.044 657.82 707.725 657.624C709.406 657.426 715.816 655.319 717.905 654.808C719.993 654.298 735.04 648.758 738.575 646.857C742.11 644.957 754.68 639.481 764.959 632.23C775.237 624.978 782.204 616.685 786.005 611.173C789.806 605.661 793.029 599.093 796.34 591.55C799.652 584.007 800.48 581.247 802.044 576.832C802.613 575.225 802.97 574.118 802.97 574.118C802.97 574.118 799.555 572.981 796.525 571.588C791.227 569.152 788.988 568.055 786.957 565.533C784.925 563.013 785.329 564.773 785.002 560.148C784.546 553.702 785.271 548.87 785.265 541.933C785.259 534.996 785.468 530.033 785.441 525.083C785.414 520.134 785.413 507.021 785.389 503.184C785.364 499.348 785.071 485.375 785.166 480.493C785.262 475.612 785.106 470.786 784.526 466.433C783.946 462.08 782.267 456.196 779.575 450.638C776.883 445.079 774.861 442.19 772.066 438.665C770.446 436.623 766.2 431.944 763.1 429.728C760.001 427.513 754.713 425.161 748.964 423.563C742.638 421.804 741.285 422.093 739.475 424.664C738.018 426.734 737.969 428.59 739.409 429.983C740.849 431.376 740.171 430.795 742.679 432.003C745.187 433.21 750.245 436.146 754.45 439.908C758.654 443.67 763.675 450.006 765.896 455.307C768.117 460.608 770.421 467.339 770.323 475.605C770.225 483.871 770.621 498.015 770.458 508.465C770.294 518.914 770.396 538.915 770.301 541.844C770.207 544.774 769.379 554.161 769.122 570.091C768.865 586.02 768.867 591.592 764.761 599.332C760.414 607.527 758.8 612.564 745.844 621.325C732.888 630.086 723.972 630.76 713.88 632.687C703.079 634.749 694.984 635.71 685.483 636.326C675.982 636.943 668.719 638.572 661.085 637.674C653.452 636.776 636.805 634.868 622.331 620.532C617.741 615.986 612.956 610.09 610.473 606.6C607.989 603.107 605.922 600.356 602.43 594.387C600.944 591.847 599.264 588.924 597.99 586.164C596.575 583.1 595.188 579.874 593.878 576.199C592.683 572.848 591.757 569.543 591.149 565.647C590.674 562.605 590.183 560.254 590.19 557.529C590.229 541.503 590.297 540.898 590.139 535.925C590.04 532.789 588.194 528.779 582.947 528.728C576.506 528.666 575.622 534.798 575.622 534.798Z" fill="url(#LinearGradient_2)" fill-rule="nonzero" filter="url(#Filter_2)" stroke="none" vectornator:layerName="曲線 1" vectornator:shadowAngle="0.741067" vectornator:shadowColor="#000000" vectornator:shadowOffset="15.4414" vectornator:shadowOpacity="0.333" vectornator:shadowRadius="34.8477"/>
<path d="M644.01 522.387C644.01 502.125 660.436 485.699 680.698 485.699C700.96 485.699 717.385 502.125 717.385 522.387C717.385 542.649 700.96 559.074 680.698 559.074C660.436 559.074 644.01 542.649 644.01 522.387Z" fill="url(#LinearGradient_3)" fill-rule="nonzero" opacity="1" stroke="none" vectornator:layerName="楕円形 1"/>
<path d="M644.01 522.387C644.01 502.125 660.436 485.699 680.698 485.699C700.96 485.699 717.385 502.125 717.385 522.387C717.385 542.649 700.96 559.074 680.698 559.074C660.436 559.074 644.01 542.649 644.01 522.387Z" fill="url(#LinearGradient_4)" fill-rule="nonzero" opacity="1" stroke="none" vectornator:layerName="楕円形 1"/>
<path d="M657.109 522.387C657.109 509.359 667.67 498.798 680.698 498.798C693.726 498.798 704.287 509.359 704.287 522.387C704.287 535.414 693.726 545.976 680.698 545.976C667.67 545.976 657.109 535.414 657.109 522.387Z" fill="#271f33" fill-rule="nonzero" opacity="1" stroke="none" vectornator:layerName="楕円形 2"/>
<path d="M667.245 524.029C666.745 516.599 672.363 510.171 679.793 509.671C687.222 509.171 693.651 514.789 694.15 522.219C694.651 529.648 689.033 536.076 681.603 536.577C674.173 537.077 667.745 531.459 667.245 524.029Z" fill="#20192e" fill-rule="nonzero" opacity="1" stroke="none" vectornator:layerName="楕円形 3"/>
<path d="M785.354 427.991L750.71 427.991L750.71 462.404L738.7 462.404L738.7 427.991L704.287 427.991L704.287 416.905L738.7 416.905L738.7 382.491L750.479 382.491L750.479 416.905L785.354 416.905L785.354 427.991Z" fill="#ffffff" fill-rule="nonzero" filter="url(#Filter_3)" stroke="none" vectornator:layerName="path" vectornator:shadowAngle="0.785398" vectornator:shadowColor="#ffffff" vectornator:shadowOffset="5.13456" vectornator:shadowOpacity="0.154083" vectornator:shadowRadius="45.9778"/>
<path d="M676.014 472.949C676.014 483.323 674.019 492.32 670.029 499.943C666.039 507.565 660.845 513.812 654.449 518.684C647.994 523.555 640.747 527.194 632.707 529.601C624.668 532.008 616.365 533.212 607.797 533.212L556.039 533.212L556.039 527.108C557.741 527.108 559.956 526.95 562.685 526.635C565.414 526.32 567.218 525.962 568.098 525.561C569.859 524.816 571.135 523.712 571.927 522.251C572.72 520.79 573.116 519.027 573.116 516.964L573.116 428.935C573.116 426.986 572.779 425.238 572.104 423.691C571.429 422.143 570.094 420.911 568.098 419.994C566.28 419.134 564.313 418.504 562.201 418.103C560.089 417.702 558.269 417.444 556.744 417.329L556.744 411.226L611.318 411.226C618.829 411.226 626.223 412.358 633.5 414.621C640.776 416.885 647.113 419.937 652.512 423.777C659.847 428.877 665.598 435.554 669.765 443.807C673.931 452.06 676.014 461.774 676.014 472.949ZM654.449 472.863C654.449 464.668 653.334 457.261 651.104 450.641C648.874 444.022 645.617 438.248 641.333 433.319C637.285 428.619 632.311 424.923 626.413 422.229C620.516 419.536 613.959 418.189 606.741 418.189C604.335 418.189 601.62 418.232 598.598 418.318C595.576 418.404 593.332 418.475 591.865 418.533L591.865 512.322C591.865 517.537 593.42 521.148 596.53 523.154C599.64 525.159 604.423 526.162 610.878 526.162C618.33 526.162 624.844 524.873 630.419 522.294C635.993 519.715 640.512 516.133 643.974 511.548C647.612 506.734 650.268 501.161 651.94 494.828C653.612 488.495 654.449 481.174 654.449 472.863Z" fill="#ffffff" fill-rule="nonzero" filter="url(#Filter_4)" stroke="none" vectornator:layerName="path" vectornator:shadowAngle="0.785398" vectornator:shadowColor="#ffffff" vectornator:shadowOffset="5.13456" vectornator:shadowOpacity="0.154083" vectornator:shadowRadius="45.9778"/>
</g>
</g>
</g>
</svg>
