<?xml version="1.0" encoding="UTF-8" standalone="no"?>
<!DOCTYPE svg PUBLIC "-//W3C//DTD SVG 1.1//EN" "http://www.w3.org/Graphics/SVG/1.1/DTD/svg11.dtd">
<!-- Created with Vectornator (http://vectornator.io/) -->
<svg height="100%" stroke-miterlimit="10" style="fill-rule:nonzero;clip-rule:evenodd;stroke-linecap:round;stroke-linejoin:round;" version="1.1" viewBox="0 0 1024 1024" width="100%" xml:space="preserve" xmlns="http://www.w3.org/2000/svg" xmlns:vectornator="http://vectornator.io" xmlns:xlink="http://www.w3.org/1999/xlink">
<defs>
<path d="M0 512C0 229.23 229.23 0 512 0C794.77 0 1024 229.23 1024 512C1024 794.77 794.77 1024 512 1024C229.23 1024 0 794.77 0 512Z" id="Fill"/>
<linearGradient gradientTransform="matrix(1 0 0 1 0 0)" gradientUnits="userSpaceOnUse" id="LinearGradient" x1="764.409" x2="373.468" y1="184.98" y2="607.154">
<stop offset="0" stop-color="#ad65d2"/>
<stop offset="1" stop-color="#b34a5e"/>
</linearGradient>
<linearGradient gradientTransform="matrix(1.07047 0 0 1 145.743 -230.88)" gradientUnits="userSpaceOnUse" id="LinearGradient_2" x1="375.232" x2="546.791" y1="1162.88" y2="1380.78">
<stop offset="0" stop-color="#223381"/>
<stop offset="1" stop-color="#69a5d8"/>
</linearGradient>
<linearGradient gradientTransform="matrix(0.180165 -0.286279 1.00333 0.631431 -965.209 405.764)" gradientUnits="userSpaceOnUse" id="LinearGradient_3" x1="276.331" x2="468.962" y1="1452.96" y2="998.381">
<stop offset="0" stop-color="#1d2f81"/>
<stop offset="1" stop-color="#579dd8"/>
</linearGradient>
<filter color-interpolation-filters="sRGB" filterUnits="userSpaceOnUse" height="520.888" id="Filter" width="639.015" x="26.7045" y="743.759">
<feDropShadow dx="15.0358" dy="-19.7966" flood-color="#ffffff" flood-opacity="0.154083" in="SourceGraphic" result="Shadow" stdDeviation="17.4238"/>
</filter>
<filter color-interpolation-filters="sRGB" filterUnits="userSpaceOnUse" height="878.927" id="Filter_2" width="889.94" x="84.5284" y="34.1502">
<feDropShadow dx="11.3919" dy="10.4241" flood-color="#000000" flood-opacity="0.333" in="SourceGraphic" result="Shadow" stdDeviation="17.4238"/>
</filter>
<linearGradient gradientTransform="matrix(1 0 0 1 0 0)" gradientUnits="userSpaceOnUse" id="LinearGradient_4" x1="521.02" x2="519.046" y1="735.993" y2="885.004">
<stop offset="0" stop-color="#e7b85f"/>
<stop offset="1" stop-color="#c2a560"/>
</linearGradient>
<filter color-interpolation-filters="sRGB" filterUnits="userSpaceOnUse" height="720.108" id="Filter_3" width="670.945" x="191.823" y="236.755">
<feDropShadow dx="11.3919" dy="10.4241" flood-color="#000000" flood-opacity="0.333" in="SourceGraphic" result="Shadow" stdDeviation="17.4238"/>
</filter>
<linearGradient gradientTransform="matrix(1 0 0 1 0 0)" gradientUnits="userSpaceOnUse" id="LinearGradient_5" x1="493.636" x2="554.344" y1="589.939" y2="417.337">
<stop offset="0" stop-color="#ff9e00"/>
<stop offset="1" stop-color="#00b2ff"/>
</linearGradient>
<linearGradient gradientTransform="matrix(1 0 0 1 0 0)" gradientUnits="userSpaceOnUse" id="LinearGradient_6" x1="424.595" x2="599.577" y1="517.327" y2="530.421">
<stop offset="0" stop-color="#f600b2" stop-opacity="0.5"/>
<stop offset="1" stop-color="#00ffa7" stop-opacity="0.5"/>
</linearGradient>
<filter color-interpolation-filters="sRGB" filterUnits="userSpaceOnUse" height="307.121" id="Filter_4" width="309.898" x="516.658" y="119.961">
<feDropShadow dx="3.63068" dy="3.63068" flood-color="#ffffff" flood-opacity="0.154083" in="SourceGraphic" result="Shadow" stdDeviation="22.9889"/>
</filter>
<filter color-interpolation-filters="sRGB" filterUnits="userSpaceOnUse" height="408.3" id="Filter_5" width="403.464" x="160.149" y="189.062">
<feDropShadow dx="3.63068" dy="3.63068" flood-color="#ffffff" flood-opacity="0.154083" in="SourceGraphic" result="Shadow" stdDeviation="22.9889"/>
</filter>
</defs>
<g id="レイヤー-7" vectornator:layerName="レイヤー 7">
<g opacity="1" vectornator:layerName="グループ 1">
<use fill="url(#LinearGradient)" fill-rule="nonzero" opacity="1" stroke="none" vectornator:layerName="楕円形 1" xlink:href="#Fill"/>
<clipPath clip-rule="nonzero" id="ClipPath">
<use xlink:href="#Fill"/>
</clipPath>
<g clip-path="url(#ClipPath)">
<path d="M145.743 972.407C145.743 828.689 382.726 712.182 675.059 712.182C967.392 712.182 1204.37 828.689 1204.37 972.407C1204.37 1116.13 967.392 1232.63 675.059 1232.63C382.726 1232.63 145.743 1116.13 145.743 972.407Z" fill="url(#LinearGradient_2)" fill-rule="nonzero" opacity="1" stroke="none" vectornator:layerName="楕円形 1"/>
<path d="M242.09 1165.56C97.8925 1074.81 20.8824 937.865 70.0832 859.686C119.284 781.507 276.064 791.696 420.262 882.444C564.459 973.192 641.469 1110.13 592.269 1188.31C543.068 1266.49 386.288 1256.3 242.09 1165.56Z" fill="url(#LinearGradient_3)" fill-rule="nonzero" filter="url(#Filter)" stroke="none" vectornator:layerName="楕円形 1" vectornator:shadowAngle="-0.921232" vectornator:shadowColor="#ffffff" vectornator:shadowOffset="24.8592" vectornator:shadowOpacity="0.154083" vectornator:shadowRadius="34.8477"/>
<path d="M770.886 114.947C778.264 119.671 778.989 120.836 781.514 123.777C786.482 129.565 791.039 142.678 792.473 152.925C794.336 166.232 795.341 177.098 795.452 190.407C795.537 200.461 794.767 207.257 794.767 207.257C794.767 207.257 793.535 224.17 792.879 232.11C791.847 244.597 788.604 267.555 787.908 272.821C787.374 276.863 785.587 287.264 785.587 290.266L785.596 290.266C785.265 297.727 794.276 309.252 798.476 317.565C803.566 327.64 806.961 334.332 813.008 349.665C818.861 364.505 821.236 373.31 825.211 389.054C831.95 415.741 833.769 442.612 833.347 470.534C833.143 484.086 831.682 493.949 830.611 506.186C829.779 515.708 828.779 520.338 826.568 531.111L826.588 531.258C829.149 521.031 830.477 515.675 838.934 507.707C848.465 498.727 860.155 493.033 876.007 502.407C882.058 505.985 890.853 516.377 894.31 522.427C899.014 530.66 904.812 546.152 907.758 557.175C913.056 576.994 918.001 592.385 919.006 615.377C919.586 628.635 919.049 631.055 912.71 650.686C909.713 659.968 905.226 667.751 896.894 679.831C893.455 684.817 887.666 692.701 879.845 701.709C871.373 711.467 866.949 715.036 855.62 721.931C845.823 727.894 836.914 728.864 825.794 729.193C812.899 729.575 809.998 728.408 798.476 725.491L798.476 725.506C784.795 722.781 774.477 721.851 767.994 726.047C757.301 732.966 754.093 736.183 741.503 746.955C727.098 759.28 717.541 764.854 695.136 779.409C666.825 797.801 638.796 810.52 631.999 813.039C630.489 813.598 620.308 817.87 604.081 822.635L604.081 822.635C597.914 824.917 568.761 832.019 555.119 834.571C541.523 837.115 524.804 838.506 512.208 838.307C502.217 838.149 503.294 838.226 493.362 837.338C483.742 836.478 483.085 836.175 472.362 834.729C466.517 833.94 458.409 832.583 447.709 829.926C442.028 828.515 436.195 827.475 428.192 824.944C422.187 823.045 414.256 821.475 408.384 819.182C402.817 817.008 398.267 815.195 392.878 812.842C387.731 810.594 387.755 810.769 379.229 806.364C374.519 803.93 370.61 802.091 363.46 797.423C357.639 793.622 357.8 793.825 350.931 789.064C346.709 786.138 343.162 783.318 340.487 780.916C338.809 779.409 335.146 774.261 330.458 777.52L330.477 777.52C321.771 785.25 324.384 793.109 328.893 803.251C329.347 804.271 332.362 810.182 331.958 816.669C331.544 823.338 327.693 830.594 326.945 832.174C326.506 833.102 323.339 837.964 319.104 841.688C315.487 844.87 310.882 846.937 308.837 848.152C306.556 849.507 297.099 853.338 297.099 853.338C297.099 853.338 289.842 855.989 279.878 857.593C278.749 857.775 275.646 858.169 275.315 858.219L275.31 858.18C275.597 858.266 264.135 859.385 252.385 858.266C245.372 857.598 227.95 854.741 225.636 854.067C223.15 853.342 215.462 851.584 210.63 850.12C202.632 847.696 199.151 846.37 190.441 841.738C183.46 838.026 181.9 836.962 176.383 833.25C174.248 831.813 170.495 828.879 168.701 827.475C167.144 826.257 165.478 824.809 163.283 822.635L163.28 822.631C163.422 822.796 157.633 817.352 153.477 812.68C150.706 809.565 147.712 806.094 144.823 802.087C142.367 798.68 139.183 793.983 137.041 790.404C132.191 782.3 129.545 776.818 125.338 765.265C123.376 759.874 122.222 757.128 120.815 751.568C120.325 749.632 119.332 745.322 119.012 743.356C118.893 742.625 117.931 736.233 117.9 736.183L117.904 736.183C117.383 733.163 117.015 728.191 117.03 722.803C117.047 716.486 117.396 712.357 118.172 705.97C119.951 691.333 126.697 672.546 136.129 657.261C139.997 650.993 147.821 638.684 153.993 628.835C159.229 620.481 176.962 594.138 176.962 594.138C176.962 594.138 185.889 579.535 188.764 575.264C190.485 572.708 195.049 565.189 195.049 565.189L195.041 565.189C197.067 560.867 193.998 554.952 193.081 549.786C191.67 541.832 189.977 535.954 188.826 524.054C187.126 506.481 186.702 493.647 186.702 487.614C186.702 486.263 186.702 474.001 186.702 474.001L186.702 474.001C186.702 469.533 186.759 465.689 186.899 462.946C187.349 454.123 187.449 453.033 187.796 448.719C188.656 438.041 191.26 421.802 192.199 416.74C192.917 412.868 196.595 395.793 197.49 391.704C198.04 389.195 201.69 375.557 201.69 375.557L201.69 375.557C205.095 363.746 210.425 347.71 216.972 332.728C224.476 315.556 233.314 299.681 238.2 291.672C240.601 287.736 241.267 286.384 247.174 279.211C247.845 278.396 249.617 276.386 249.582 271.825C249.582 271.825 271.806 342.057 249.561 271.825C241.53 246.47 240.091 221.33 242.517 190.496C244.167 169.539 248.735 146.653 252.039 128.28C254.647 113.779 258.407 96.5344 262.535 87.5428C265.83 80.3664 270.39 75.212 273.411 73.1114C275.322 71.7824 272.508 73.7947 272.508 73.7947C276.276 70.5972 281.12 68.724 284.751 68.3235C295.781 67.107 310.537 67.6734 321.609 68.4681C330.458 69.1032 340.654 71.3529 342.315 71.6608C370.935 76.9682 401.724 93.4724 418.344 104.257C423.367 107.517 428.569 111.19 433.244 114.947C441.076 121.243 448.703 128.428 455.795 135.481C461.421 141.076 466.948 146.58 472.614 152.548C476.681 156.831 482.567 163.684 486.78 169.515C490.05 174.04 492.044 178.012 493.109 179.297L493.109 179.297C496.655 183.261 502.725 181.551 505.595 181.249C512.517 180.52 519.247 180.554 523.674 180.554C527.404 180.554 527.884 180.585 531.836 180.585L531.836 180.585C534.913 180.585 538.064 180.585 538.636 176.948C538.909 175.212 539.705 172.128 540.558 170.066C543.883 162.018 547.31 158.308 552.138 152.563C562.511 140.222 578.763 131.635 590.169 125.346C601.005 119.371 615.822 113.786 620.557 112.532C634.101 108.944 648.016 105.457 661.907 103.818C672.61 102.556 684.063 100.96 689.773 100.606C711.9 99.2317 730.043 96.7159 750.31 104.232C758.943 107.434 765.736 111.271 771.223 114.973C772.629 115.922 773.95 116.863 775.193 117.781" fill="#271f34" fill-rule="nonzero" filter="url(#Filter_2)" stroke="#271f34" stroke-linecap="round" stroke-linejoin="round" stroke-width="0.666749" vectornator:layerName="曲線 1" vectornator:shadowAngle="0.741067" vectornator:shadowColor="#000000" vectornator:shadowOffset="15.4414" vectornator:shadowOpacity="0.333" vectornator:shadowRadius="34.8477"/>
<path d="M261.084 540.074C261.122 553.454 260.958 561.89 260.958 577.576C260.958 593.263 261.966 607.703 259.589 615.309C257.212 622.914 250.272 632.706 243.237 638.315C236.202 643.924 227.66 650.342 224.921 651.226C222.181 652.11 225.963 654.466 230.167 659.013C234.371 663.561 251.617 684.667 259.51 694.362C267.404 704.058 282.351 723.013 289.358 731.445C296.366 739.878 310.975 758.048 320.558 768.051C330.141 778.055 336.216 784.272 349.336 792.691C362.456 801.11 364.398 804.424 387.123 814.07C409.849 823.716 415.679 825.205 429.726 828.918C443.773 832.631 446.689 833.495 450.184 834.82C453.678 836.146 455.299 837.798 455.985 842.918C456.67 848.038 459.363 856.601 463.231 865.148C467.098 873.694 472.059 884.135 477.764 890.649C483.468 897.164 489.483 900.683 495.028 902.045C500.573 903.407 506.82 903.493 515.008 899.272C523.196 895.05 535.74 881.393 540.775 875.238C545.809 869.082 559.514 851.796 563.543 846.238C567.573 840.68 574.725 835.922 578.768 835.449C582.811 834.975 598.225 829.906 603.249 828.679C608.272 827.451 644.456 814.128 652.957 809.558C661.458 804.988 691.688 791.82 716.406 774.381C741.123 756.941 757.878 736.999 767.018 723.744C776.159 710.488 783.909 694.694 791.873 676.554C799.837 658.414 801.828 651.777 805.589 641.158C806.957 637.295 807.816 634.632 807.816 634.632C807.816 634.632 799.605 631.898 792.317 628.548C779.576 622.691 774.192 620.051 769.307 613.988C764.422 607.926 765.394 612.159 764.607 601.037C763.509 585.536 765.253 573.916 765.239 557.233C765.225 540.55 765.728 528.616 765.662 516.712C765.597 504.809 765.596 473.276 765.536 464.049C765.476 454.823 764.772 421.22 765.002 409.48C765.232 397.741 764.856 386.136 763.461 375.668C762.066 365.2 758.03 351.051 751.556 337.683C745.082 324.316 740.22 317.367 733.497 308.891C729.602 303.98 719.391 292.729 711.937 287.4C704.483 282.071 691.767 276.416 677.941 272.572C662.729 268.343 659.475 269.037 655.121 275.221C651.617 280.198 651.5 284.661 654.963 288.012C658.425 291.363 656.796 289.965 662.828 292.869C668.859 295.773 681.023 302.834 691.134 311.88C701.244 320.927 713.319 336.165 718.66 348.912C724.002 361.659 729.542 377.846 729.306 397.725C729.07 417.604 730.023 451.618 729.63 476.747C729.237 501.875 729.481 549.976 729.254 557.02C729.027 564.064 727.036 586.639 726.418 624.947C725.8 663.255 725.805 676.654 715.931 695.269C705.477 714.976 701.596 727.089 670.438 748.158C639.28 769.226 617.839 770.848 593.571 775.481C567.596 780.439 548.129 782.75 525.28 784.233C502.431 785.717 484.965 789.633 466.608 787.474C448.252 785.314 408.218 780.725 373.411 746.251C362.373 735.318 350.865 721.14 344.895 712.747C338.92 704.346 333.949 697.73 325.552 683.376C321.978 677.268 317.938 670.238 314.875 663.602C311.472 656.233 308.135 648.475 304.986 639.638C302.113 631.578 299.884 623.631 298.422 614.262C297.28 606.946 296.1 601.292 296.116 594.739C296.211 556.198 296.374 554.745 295.994 542.785C295.755 535.244 291.316 525.599 278.698 525.478C263.21 525.329 261.084 540.074 261.084 540.074Z" fill="url(#LinearGradient_4)" fill-rule="nonzero" filter="url(#Filter_3)" stroke="none" vectornator:layerName="曲線 1" vectornator:shadowAngle="0.741067" vectornator:shadowColor="#000000" vectornator:shadowOffset="15.4414" vectornator:shadowOpacity="0.333" vectornator:shadowRadius="34.8477"/>
<path d="M425.545 510.227C425.545 461.501 465.046 422 513.773 422C562.499 422 602 461.501 602 510.227C602 558.954 562.499 598.455 513.773 598.455C465.046 598.455 425.545 558.954 425.545 510.227Z" fill="url(#LinearGradient_5)" fill-rule="nonzero" opacity="1" stroke="none" vectornator:layerName="楕円形 1"/>
<path d="M425.545 510.227C425.545 461.501 465.046 422 513.773 422C562.499 422 602 461.501 602 510.227C602 558.954 562.499 598.455 513.773 598.455C465.046 598.455 425.545 558.954 425.545 510.227Z" fill="url(#LinearGradient_6)" fill-rule="nonzero" opacity="1" stroke="none" vectornator:layerName="楕円形 1"/>
<path d="M457.045 510.227C457.045 478.898 482.443 453.5 513.773 453.5C545.102 453.5 570.5 478.898 570.5 510.227C570.5 541.557 545.102 566.955 513.773 566.955C482.443 566.955 457.045 541.557 457.045 510.227Z" fill="#271f33" fill-rule="nonzero" opacity="1" stroke="none" vectornator:layerName="楕円形 2"/>
<path d="M481.421 514.177C480.219 496.31 493.728 480.851 511.596 479.648C529.463 478.446 544.922 491.956 546.124 509.823C547.327 527.69 533.817 543.149 515.95 544.352C498.082 545.554 482.623 532.044 481.421 514.177Z" fill="#20192e" fill-rule="nonzero" opacity="1" stroke="none" vectornator:layerName="楕円形 3"/>
<path d="M765.454 283.221L682.14 283.221L682.14 365.979L653.258 365.979L653.258 283.221L570.5 283.221L570.5 256.561L653.258 256.561L653.258 173.802L681.585 173.802L681.585 256.561L765.454 256.561L765.454 283.221Z" fill="#ffffff" fill-rule="nonzero" filter="url(#Filter_4)" stroke="none" vectornator:shadowAngle="0.785398" vectornator:shadowColor="#ffffff" vectornator:shadowOffset="5.13456" vectornator:shadowOpacity="0.154083" vectornator:shadowRadius="45.9778"/>
<path d="M502.51 391.339C502.51 416.285 497.712 437.923 488.116 456.253C478.52 474.584 466.03 489.607 450.648 501.322C435.125 513.036 417.697 521.788 398.363 527.577C379.03 533.365 359.062 536.26 338.458 536.26L213.99 536.26L213.99 521.581C218.083 521.581 223.41 521.202 229.972 520.444C236.534 519.686 240.874 518.825 242.99 517.86C247.224 516.069 250.293 513.415 252.198 509.901C254.104 506.387 255.056 502.148 255.056 497.187L255.056 285.491C255.056 280.805 254.245 276.602 252.622 272.88C250.999 269.159 247.788 266.196 242.99 263.991C238.616 261.923 233.888 260.407 228.808 259.443C223.728 258.478 219.353 257.858 215.684 257.582L215.684 242.904L346.925 242.904C364.989 242.904 382.77 245.626 400.269 251.07C417.767 256.514 433.008 263.853 445.991 273.087C463.631 285.353 477.461 301.41 487.481 321.256C497.5 341.103 502.51 364.464 502.51 391.339ZM450.648 391.132C450.648 371.424 447.967 353.61 442.604 337.691C437.242 321.773 429.41 307.887 419.108 296.035C409.371 284.733 397.411 275.843 383.228 269.366C369.046 262.888 353.276 259.649 335.918 259.649C330.132 259.649 323.605 259.753 316.337 259.959C309.07 260.166 303.672 260.338 300.144 260.476L300.144 486.023C300.144 498.565 303.884 507.248 311.363 512.072C318.842 516.895 330.344 519.307 345.867 519.307C363.789 519.307 379.453 516.206 392.86 510.004C406.266 503.802 417.132 495.188 425.458 484.163C434.208 472.585 440.594 459.182 444.615 443.953C448.637 428.723 450.648 411.117 450.648 391.132Z" fill="#ffffff" fill-rule="nonzero" filter="url(#Filter_5)" stroke="none" vectornator:shadowAngle="0.785398" vectornator:shadowColor="#ffffff" vectornator:shadowOffset="5.13456" vectornator:shadowOpacity="0.154083" vectornator:shadowRadius="45.9778"/>
</g>
</g>
</g>
</svg>
